<svg xmlns="http://www.w3.org/2000/svg" viewBox="0 0 16.972 11.858">
  <defs>
    <style>
      .subscribe-1 {
        fill: #404040;
      }
    </style>
  </defs>
  <path class="subscribe-1" d="M9.822.458h0a1.588,1.588,0,0,0,0,2.239L11,3.872a.28.28,0,0,1-.2.476H1.567A1.565,1.565,0,0,0,0,5.915H0A1.565,1.565,0,0,0,1.567,7.482h9.207a.274.274,0,0,1,.2.476L9.794,9.133a1.588,1.588,0,0,0,0,2.239h0a1.588,1.588,0,0,0,2.239,0L16.595,6.81a1.284,1.284,0,0,0,0-1.819L12.033.458A1.507,1.507,0,0,0,9.822.458Z" transform="translate(0 0.025)"/>
</svg>
